<svg xmlns="http://www.w3.org/2000/svg" xmlns:xlink="http://www.w3.org/1999/xlink" viewBox="0 0 378.84 267.6"><defs><style>.cls-1{fill:#3ac1cf;}.cls-2{fill:url(#Dégradé_sans_nom_10);}.cls-3{fill:url(#Dégradé_sans_nom_10-2);}.cls-4{fill:url(#Dégradé_sans_nom_10-3);}.cls-5{fill:url(#Dégradé_sans_nom_10-4);}.cls-6{fill:url(#Dégradé_sans_nom_10-5);}.cls-7{fill:url(#Dégradé_sans_nom_10-6);}.cls-8{fill:url(#Dégradé_sans_nom_10-7);}.cls-9{fill:url(#Dégradé_sans_nom_10-8);}</style><radialGradient id="Dégradé_sans_nom_10" cx="-563.01" cy="778.75" r="1.02" gradientTransform="matrix(172.67, -229.27, -232.61, -170.2, 278388.73, 3612.42)" gradientUnits="userSpaceOnUse"><stop offset="0" stop-color="#fff"/><stop offset="0.04" stop-color="#fcfad0"/><stop offset="0.12" stop-color="#f3ef5a"/><stop offset="0.16" stop-color="#efe922"/><stop offset="0.29" stop-color="#c2da3a"/><stop offset="0.44" stop-color="#92ca54"/><stop offset="0.52" stop-color="#80c45e"/><stop offset="0.58" stop-color="#6fc379"/><stop offset="0.71" stop-color="#44c1bf"/><stop offset="0.73" stop-color="#3ac1cf"/><stop offset="0.74" stop-color="#3abfce"/><stop offset="0.92" stop-color="#4564a9"/><stop offset="1" stop-color="#49409a"/></radialGradient><radialGradient id="Dégradé_sans_nom_10-2" cx="-563.01" cy="778.75" r="1.02" gradientTransform="matrix(172.67, -229.28, -232.61, -170.2, 278392.25, 3612.45)" xlink:href="#Dégradé_sans_nom_10"/><radialGradient id="Dégradé_sans_nom_10-3" cx="-563.01" cy="778.75" r="1.02" gradientTransform="matrix(172.67, -229.28, -232.61, -170.2, 278392.31, 3612.45)" xlink:href="#Dégradé_sans_nom_10"/><radialGradient id="Dégradé_sans_nom_10-4" cx="-563.01" cy="778.75" r="1.02" gradientTransform="matrix(172.67, -229.27, -232.61, -170.19, 278385.48, 3612.36)" xlink:href="#Dégradé_sans_nom_10"/><radialGradient id="Dégradé_sans_nom_10-5" cx="-563.01" cy="778.75" r="1.02" gradientTransform="matrix(172.67, -229.28, -232.61, -170.2, 278393.3, 3612.45)" xlink:href="#Dégradé_sans_nom_10"/><radialGradient id="Dégradé_sans_nom_10-6" cx="-563.01" cy="778.75" r="1.02" gradientTransform="matrix(172.67, -229.27, -232.61, -170.2, 278390.7, 3612.42)" xlink:href="#Dégradé_sans_nom_10"/><radialGradient id="Dégradé_sans_nom_10-7" cx="-563.01" cy="778.75" r="1.02" gradientTransform="matrix(172.67, -229.28, -232.61, -170.2, 278393.82, 3612.46)" xlink:href="#Dégradé_sans_nom_10"/><radialGradient id="Dégradé_sans_nom_10-8" cx="-563.01" cy="778.75" r="1.02" gradientTransform="matrix(172.67, -229.27, -232.61, -170.2, 278387.07, 3612.39)" xlink:href="#Dégradé_sans_nom_10"/></defs><title>logo-tokay-vertical</title><g id="Calque_2" data-name="Calque 2"><g id="Calque_1-2" data-name="Calque 1"><g id="logo_OK" data-name="logo OK"><path id="logo" class="cls-1" d="M356.29,187.84l-34.15,29.73-15.52-29.73H288l22.63,42.51L307,241.89l-24.65-46.54-5.68-10.43-65,56.12L193,226.59l45-38.87H212.55l-41.32,35.65,11.1-35.5H165.25l-7.14,22.82c-.79-4.77-3.44-9.87-9.5-14.55-7.87-6.08-18.63-9.16-32-9.16a77.66,77.66,0,0,0-36.25,8.67c-1.15.6-2.25,1.22-3.31,1.85L80,187.91H4.35L0,202.11H29.2L13.68,251.83H30.76l15.53-49.71H70.37c-5.84,4.71-9.74,10.08-11.64,16.08-2.1,6.77-2.3,16.62,8.68,25.1,7.87,6.08,18.62,9.17,32,9.17a77.56,77.56,0,0,0,36.25-8.67c6.86-3.57,12.2-7.7,16-12.33L145.19,252h17.07l7.09-22.66,49.48,38.24h27.25l-21.84-16.88,46.61-40.37L293.1,251.9h19.25l0-.08H321l6-19.06,51.85-44.93ZM141.17,218.18c-1.62,5.17-6.28,9.8-13.83,13.76a57.46,57.46,0,0,1-26.76,6.35c-9.31,0-16.6-2-21.65-5.85-4.32-3.35-5.55-6.69-4.15-11.2,1.62-5.17,6.28-9.8,13.83-13.76a57.42,57.42,0,0,1,26.76-6.35c9.31,0,16.6,2,21.65,5.85C141.33,210.35,142.57,213.69,141.17,218.18Z"/><g id="iconne"><path class="cls-2" d="M316.82,77c5.7,5.22,11.94,10.93,16.2,17.33a26.73,26.73,0,0,0,3.12-10.15c-4.13-6-9.25-11.32-13.78-16.06L321,66.72c-5.86-6.16-12-10.4-17.85-14.49-6.82-4.74-13.26-9.2-19-16.36a146.47,146.47,0,0,1-11.93-17.81C266.58,16.56,261,15,255.45,13.4c6.3,12.27,13.23,23.9,21.46,33.81,6.49,7.27,13.65,11.53,20.57,15.66,5.54,3.3,11.26,6.72,16.65,11.71Z"/><path class="cls-3" d="M299.2,98.69c4.6,4.21,9.56,8.75,13.51,13.69a73.65,73.65,0,0,0,9-5.64c-4.39-7-10.29-13.14-15.44-18.52l-1.39-1.45c-5.79-6.08-12.18-10.86-18.36-15.47-7.42-5.54-14.43-10.78-20.21-18C258,42.9,251.23,29.93,244.71,17.38c-1.42-2.73-2.85-5.48-4.3-8.22-5.79-1.6-11.49-3.1-17.06-4.41l.41.93c9.36,21.05,19,42.82,33.63,60.37,6.65,7.45,14.49,12.58,22.07,17.56,6,4,11.76,7.71,17,12.58Z"/><path class="cls-4" d="M253.16,98.4c7.89,7.21,16.81,15.38,19.9,24.88l8.68-2.12c-2.36-13.24-12.95-24.32-21.46-33.22l-1.4-1.46C253,80.3,247.11,76.1,241.42,72,234.9,67.38,228.73,63,223,55.88c-8.36-10.42-15.78-24.1-22.95-37.33C196.71,12.35,193.3,6.06,189.74,0a61.76,61.76,0,0,0-14,1.47q1.67,3.9,3.38,7.94c9.64,22.76,19.61,46.31,33.64,63.17,6.62,7.42,13.9,10.52,20.94,13.53,5.88,2.51,11.44,4.89,16.71,9.78Z"/><path class="cls-5" d="M229.3,128.82c2.71,2.48,5.55,5.08,8.23,7.8l11.28-2.9c-1.76-2.21-3.62-4.34-5.47-6.46a95.42,95.42,0,0,1-7.78-9.7c-9.44-14.28-17.31-19.65-24.25-24.39C206.62,90,202.6,87.23,198.38,82,190,71.58,182.81,59,175.84,46.8c-7.36-12.87-15-26.18-24.18-37.39q-4.22,1.67-8.32,3.48l.28.58c3.54,7.25,7,15,10.44,22.85C163.67,58,173.6,80.45,188.15,98c6.62,7.39,14.2,12,21.53,16.44,6,3.63,11.65,7.06,16.94,12Z"/><path class="cls-6" d="M195.1,147.78c4.53-1.1,9.07-2.27,13.59-3.48-.88-1.12-1.7-2.24-2.44-3.36-9.44-14.28-17.31-19.66-24.25-24.39-4.68-3.19-8.71-5.95-12.92-11.17-8.37-10.43-15.58-23-22.55-35.21-7.51-13.11-15.26-26.68-24.7-38l-4.57-5.49q-3.07,1.91-6,3.89l3.09,6.32c3.54,7.25,7,15,10.45,22.86,9.6,21.69,19.52,44.12,34.07,61.63,6.61,7.4,14.2,12,21.53,16.44A114,114,0,0,1,195.1,147.78Z"/><path class="cls-7" d="M151.49,155.4c5.88-.5,11.93-1.3,18.09-2.32-9.11-13.45-16.75-18.67-23.5-23.28-4.68-3.19-8.71-5.95-12.92-11.18-8.37-10.42-15.58-23-22.54-35.19-6.77-11.84-13.76-24-22-34.65q-3.86,3.78-7.2,7.68c2.48,5.34,4.94,10.88,7.41,16.48,9.6,21.7,19.53,44.13,34.09,61.65,6.61,7.4,14.2,12,21.53,16.44C146.85,152.48,149.19,153.9,151.49,155.4Z"/><path class="cls-8" d="M110.64,145.14C102.24,134.68,95,123,88,111.79c-6.57-10.54-13.33-21.39-21.13-31.46a48,48,0,0,0-2.79,12.23c8.31,16.7,17.21,33.49,28.29,49.33a65.59,65.59,0,0,0,11.82,7.62,60.14,60.14,0,0,0,14.2,4.67h0C115.7,151.22,113.11,148.21,110.64,145.14Z"/><path class="cls-9" d="M372,26.61c-5.45-4.71-12-6.26-19-6.26-6.66,0-13.78,1.39-20.86,2.78-9.18,1.8-18.31,3.61-26.32,2.38-6.41-1-12.92-2.31-19.46-3.85,6.36,6.37,13,12.42,19.51,18.32,3,2.71,6,5.41,8.9,8.14l2.72,2.5c5.88,5.39,12.34,11.3,16.59,18C328.32,36.72,386.92,39.49,372,26.61Z"/></g></g></g></g></svg>