<svg xmlns="http://www.w3.org/2000/svg" viewBox="0 0 72 72"><defs><style>.cls-1{fill:#faca1a;}.cls-2{fill:#7c2879;}</style></defs><g id="Layer_5" data-name="Layer 5"><rect class="cls-1" width="72" height="72"/><path class="cls-2" d="M17.59,35.87l9.6-3.65h0a.74.74,0,0,0,.47-.89.76.76,0,0,0-.39-.47.71.71,0,0,0-.57,0L9.41,37.4l-.06,0a.74.74,0,0,0-.47.89.77.77,0,0,0,.38.47.73.73,0,0,0,.58,0l6-2.27-5,15.62c-.05.14-.09.28-.14.43a.72.72,0,0,0,.47.92,1,1,0,0,0,.24,0,.73.73,0,0,0,.71-.51L17.56,36Z"/><path class="cls-2" d="M22.4,38.41a3.06,3.06,0,0,0-.64-.1,3.7,3.7,0,0,0-2.55.85,5,5,0,0,0-1.47,2.1,6.35,6.35,0,0,0-.42,2.54A4.52,4.52,0,0,0,18,46.14a3.09,3.09,0,0,0,2.16,1.32l.36,0a3.12,3.12,0,0,0,2-.73,5,5,0,0,0,1.44-2,7.21,7.21,0,0,0,.6-2.48,4.84,4.84,0,0,0-.39-2.37A2.77,2.77,0,0,0,22.4,38.41Zm0,1.65.06,0,.1.1.09.11a2.64,2.64,0,0,1,.19.35l0,.1L23,41a3.76,3.76,0,0,1,.09.44l0,.16c0,.08,0,.16,0,.24s0,.32,0,.48,0,.17,0,.24l0,.22a5.63,5.63,0,0,1-.25,1c0,.08-.05.16-.08.23l-.09.21c-.07.15-.14.3-.22.44s-.17.28-.25.4l-.05.07a.3.3,0,0,0-.07.08l-.14.16a1.92,1.92,0,0,1-.3.28l-.13.1-.16.1-.21.09-.08,0-.17,0-.13,0h-.33a1.9,1.9,0,0,1-.45-.12l-.07,0-.19-.1-.07-.06a.8.8,0,0,1-.13-.13l-.12-.12-.09-.13a3.54,3.54,0,0,1-.19-.33L19,44.79a1.72,1.72,0,0,1-.07-.21,3.53,3.53,0,0,1-.1-.51l0-.13c0-.08,0-.16,0-.23a4.17,4.17,0,0,1,0-.5c0-.08,0-.17,0-.25l0-.22a4,4,0,0,1,.11-.5,4.5,4.5,0,0,1,.16-.48,1.67,1.67,0,0,1,.08-.2c0-.07.07-.15.11-.22s.16-.28.26-.43l.1-.14.16-.18a1.79,1.79,0,0,1,.32-.3l.15-.12.18-.11a2.09,2.09,0,0,1,.74-.25l.23,0h.23l.16,0,.17,0,.13,0,.2-.25-.07.31Z"/><path class="cls-2" d="M31.86,36a4,4,0,0,0-2.05-.29.67.67,0,0,0-.16-.25.76.76,0,0,0-.73-.19.69.69,0,0,0-.51.52l-.05.18-.67.19a18.82,18.82,0,0,0-1.76.67c-.35.15-.66.29-1,.46a.74.74,0,0,0-.36.42.78.78,0,0,0,.5.94.76.76,0,0,0,.57-.06l.58-.28.61-.27.8-.3.26-.09-1.38,5.25-.45.09a.7.7,0,0,0-.48.32.77.77,0,0,0-.09.61.73.73,0,0,0,.61.53l-1.43,5.4c0,.12-.07.24-.1.37a.73.73,0,0,0,.1.61.79.79,0,0,0,.43.3l.2,0a.73.73,0,0,0,.7-.54l1.72-6.5c.45-.13.88-.29,1.29-.45a9.53,9.53,0,0,0,2.16-1.19,5.47,5.47,0,0,0,1.7-2,4.28,4.28,0,0,0,.3-2.74A2.47,2.47,0,0,0,31.86,36ZM32,37.64l-.27.17,0,.08a.84.84,0,0,1,.05.17l0,.16c0,.07,0,.15,0,.23a4.78,4.78,0,0,1,0,.53l0,.21a2.1,2.1,0,0,1-.06.24,3.11,3.11,0,0,1-.41.84l-.12.17-.17.19-.36.36a6.36,6.36,0,0,1-.83.6,9.19,9.19,0,0,1-.94.5l-.44.19-.23.09,1.37-5.17.12,0h.16l.42,0,.38,0h.13l.17,0,.14,0,.1,0,.2.11.09.08.08.09.05.08a.75.75,0,0,1,.07.12l.28-.13Z"/><path class="cls-2" d="M42.58,43.88a.73.73,0,0,0-1,0,.72.72,0,0,0-.12.89l0,.06h0a.38.38,0,0,0,.09.09l-.08,0v.15a4.05,4.05,0,0,1-.12.5l-.09.23c0,.09-.08.18-.13.27l-.15.25-.08.12-.07.09a1.34,1.34,0,0,1-.2.21l-.09.08.15.27h0l-.24-.2-.26.15-.1,0h0l-.1,0h-.26l0,.31h0l-.08-.32a1.77,1.77,0,0,1-.6-.2l-.22-.13-.18-.13-.19-.19-.15-.18a4.07,4.07,0,0,1-.31-.49l-.11-.25c0-.11-.08-.21-.11-.31a4.69,4.69,0,0,1-.17-.67,5.24,5.24,0,0,1-.09-.72c0-.25,0-.52,0-.79a10.94,10.94,0,0,1,.65-3.41,10.2,10.2,0,0,1,1.74-3.11,7.35,7.35,0,0,1,1.26-1.19,4.6,4.6,0,0,1,.66-.41l.16-.08.07,0,.24-.07.15,0h.14l.1-.29v.3h0l.08,0h0l.16-.24h0l-.12.29.1.09.08.1a.86.86,0,0,1,.1.16.56.56,0,0,1,.09.17l.08.18a4,4,0,0,1,.14.45c0,.16.07.33.1.5l.07.46a12,12,0,0,1,.06,1.49.71.71,0,0,0,.69.76A.79.79,0,0,0,44.8,39a.75.75,0,0,0,.24-.52,8.64,8.64,0,0,0,0-1.22,7.34,7.34,0,0,0-.48-2.36,3.09,3.09,0,0,0-.72-1.1,2,2,0,0,0-1.3-.56,2.88,2.88,0,0,0-1.57.41,7,7,0,0,0-1.64,1.23A10.81,10.81,0,0,0,37,38.37a13,13,0,0,0-1,4,8.26,8.26,0,0,0,.39,3.6,4.14,4.14,0,0,0,2.17,2.44,3.19,3.19,0,0,0,1.22.26,2.64,2.64,0,0,0,.84-.14A3.13,3.13,0,0,0,42,47.44,4.69,4.69,0,0,0,42.77,46a3.12,3.12,0,0,0,.14-1.41A1.26,1.26,0,0,0,42.58,43.88Zm-.94,1h.12l-.15,0Z"/><path class="cls-2" d="M50.88,36.4a.72.72,0,0,0-.28-.58.8.8,0,0,0-.65-.14l-1.9.49a.8.8,0,0,0-.55.49L45.17,43h-.38a.72.72,0,0,0-.64.36.77.77,0,0,0,0,.75.72.72,0,0,0,.49.36l-1.46,4a4.7,4.7,0,0,0-.17.45.7.7,0,0,0,0,.58.74.74,0,0,0,1.36-.09l1.79-4.87,3.21.05v5.86a.74.74,0,0,0,1.48,0V36.76a2,2,0,0,0,0-.35Zm-1.48,1V43l-2.66,0,2-5.36,0-.13Z"/><path class="cls-2" d="M63.12,32.79h0a.78.78,0,0,0-.39-.47.71.71,0,0,0-.57,0L52.56,36a.74.74,0,0,0-.07,1.36.69.69,0,0,0,.58,0l2.22-.87L53.2,45.73l-.11.47c-.07.33-.15.65-.22,1a.72.72,0,0,0,.12.59.77.77,0,0,0,.45.3l.17,0a.72.72,0,0,0,.7-.57l2.36-10.37.12-.51c.05-.25.11-.5.17-.75l5.7-2.22A.74.74,0,0,0,63.12,32.79Z"/><path class="cls-2" d="M46.17,23.43c1-.05,3.06.13,3.62,1.17a.63.63,0,0,1,.06.6c-.26.55-1.37.89-1.78,1a.25.25,0,0,0-.19.29l0,.24a.23.23,0,0,0,.1.16.23.23,0,0,0,.14,0h0c.19,0,1.84-.4,2.3-1.39a1.37,1.37,0,0,0-.07-1.27c-.94-1.77-4.18-1.57-4.32-1.56a.25.25,0,0,0-.23.26v.25A.25.25,0,0,0,46.17,23.43Z"/><path class="cls-2" d="M53.48,25.29a2.12,2.12,0,0,0,0-1.78c-.92-2.34-4.2-2.1-4.34-2.09a.26.26,0,0,0-.17.09.28.28,0,0,0-.06.18l0,.25a.25.25,0,0,0,.27.22c.29,0,2.9-.12,3.59,1.62a1.42,1.42,0,0,1,0,1.18,3.15,3.15,0,0,1-1.72,1.21.25.25,0,0,0-.17.31l.06.24a.25.25,0,0,0,.24.18h.07A3.78,3.78,0,0,0,53.48,25.29Z"/><path class="cls-2" d="M19.5,26.29h.34a.25.25,0,0,0,.24-.26l0-.25a.25.25,0,0,0-.26-.23c-1,.05-3.06-.12-3.62-1.17a.6.6,0,0,1-.05-.6c.26-.55,1.37-.89,1.77-1a.24.24,0,0,0,.2-.29l-.05-.24a.26.26,0,0,0-.3-.2c-.18,0-1.83.4-2.3,1.39a1.39,1.39,0,0,0,.08,1.28C16.29,26.15,18.56,26.3,19.5,26.29Z"/><path class="cls-2" d="M16.45,27.56h.36a.25.25,0,0,0,.22-.27L17,27a.25.25,0,0,0-.27-.23c-.29,0-2.9.12-3.59-1.62a1.39,1.39,0,0,1,0-1.18,3.08,3.08,0,0,1,1.72-1.21.26.26,0,0,0,.17-.31L15,22.26a.24.24,0,0,0-.3-.18,3.76,3.76,0,0,0-2.19,1.6,2.12,2.12,0,0,0,0,1.78C13.21,27.37,15.5,27.57,16.45,27.56Z"/><path class="cls-2" d="M19.54,24.53a5.46,5.46,0,0,0,1.08.45l.19.06a23.54,23.54,0,0,0,3.88.9,49.37,49.37,0,0,0,6.11.53c1.73.05,3.49.07,5.19.08l2.52,0h.74l2.07,0c1,0,2,0,3-.14a6.32,6.32,0,0,0,1.76-.35c.33-.13.77-.36.76-.79s-.49-.79-.84-1a8.39,8.39,0,0,0-1.84-.73,25.45,25.45,0,0,0-3.44-.72l.24-3.68,0,0a.19.19,0,0,0-.14-.12,29.91,29.91,0,0,0-5-.53c-1.92-.09-3.82-.09-5.65,0a31.69,31.69,0,0,0-3.51.34h0a6.24,6.24,0,0,0-1.26.3c-.08,0-.27.1-.27.28v.89l-1.79-.43c-.1,0-.57,0-.67.21a.17.17,0,0,0,0,.21l2,2.59c-.64,0-1.29.1-1.93.17s-1.16.14-1.75.26h-.07a3.51,3.51,0,0,0-1.29.43.46.46,0,0,0-.26.38A.41.41,0,0,0,19.54,24.53Zm6.32-5,.19,0,.29-.06.77-.12A42.56,42.56,0,0,1,33.26,19a47.73,47.73,0,0,1,5.63.36c.47.06.82.11,1.15.17h0v.15l-.16,2.56-1.1-1.6a.25.25,0,0,0-.25-.12h0a.82.82,0,0,0-.56.25L37.15,22c-1,.05-4,.18-6.77.05a45.75,45.75,0,0,1-4.68-.45V21ZM39.58,23.3a1.12,1.12,0,0,1-.39.23,4.38,4.38,0,0,1-1.07.25,12.82,12.82,0,0,1-1.41.1l1.62-2.42,1,1.48.08.12ZM23.9,20.69l.93.23v1ZM20.21,24a.76.76,0,0,1,.2-.06h0a12.15,12.15,0,0,1,1.41-.26c.8-.11,1.65-.19,2.7-.25l.72,0a17.07,17.07,0,0,0,4.35.75,29.51,29.51,0,0,0,6.11.17l.06,0a.25.25,0,0,0,.13,0,16.71,16.71,0,0,0,1.73-.09,5.12,5.12,0,0,0,2.48-.73h0a1.42,1.42,0,0,0,.21-.17c.67.1,1.37.23,2.09.4a14.54,14.54,0,0,1,1.9.54,4,4,0,0,1,1.36.73s.36.36.18.56a.62.62,0,0,1-.26.13l-.22,0-.39.08a28.21,28.21,0,0,1-4.31.18h-.65l-3.77,0-3.36,0a56.48,56.48,0,0,1-6.34-.36,28.21,28.21,0,0,1-4.21-.77c-.51-.14-1-.29-1.42-.45-.18-.07-.38-.14-.57-.23h0a.75.75,0,0,1-.21-.12Z"/></g></svg>